inDegrees=yes
name=ik_S47_A07_T02
DataType=double
version=3
OpenSimVersion=4.3-2021-08-27-4bc7ad9
endheader
time	pelvis_tilt	pelvis_list	pelvis_rotation	pelvis_tx	pelvis_ty	pelvis_tz	hip_flexion_r	hip_adduction_r	hip_rotation_r	knee_angle_r	knee_angle_r_beta	ankle_angle_r	subtalar_angle_r	mtp_angle_r	hip_flexion_l	hip_adduction_l	hip_rotation_l	knee_angle_l	knee_angle_l_beta	ankle_angle_l	subtalar_angle_l	mtp_angle_l	lumbar_extension	lumbar_bending	lumbar_rotation	arm_flex_r	arm_add_r	arm_rot_r	elbow_flex_r	pro_sup_r	wrist_flex_r	wrist_dev_r	arm_flex_l	arm_add_l	arm_rot_l	elbow_flex_l	pro_sup_l	wrist_flex_l	wrist_dev_l
0	0	0	0	0	0.9399999999999999	0	0	0	0	0	0	0	0	0	0	0	0	0	0	0	0	0	0	0	0	0	0	0	0	89.99999999963507	0	0	0	0	0	0	89.99999999869995	0	0
0.02	-16.73028589082476	-4.814969788221681	23.33452087169695	0	0.9399999999999999	0	3.472136384735574	-1.625586494658857	-1.169843983445557	5.405400920003776	0.09434204344439652	0	0	0	3.472136384735574	-1.625586494658857	-1.169843983445557	5.405400920003776	0.09434204344439652	0	0	0	-15.36843722007631	-3.198465480269198	3.496879781468563	41.8455255010435	-4.461048194562914	9.914824467537672	45.80946721431914	106.7975501192941	0	0	40.17250265116775	-2.013192195518291	11.8161127928418	37.86163549905709	96.31994265199744	0	0
0.04	-16.26830963796523	-5.733585722957926	25.48039908286109	0	0.9399999999999999	0	34.16812717693056	-13.67440952234615	-10.33394174673542	50.0871215819683	0.8741851844520576	0	0	0	34.16812717693056	-13.67440952234615	-10.33394174673542	50.0871215819683	0.8741851844520576	0	0	0	-15.50412403410551	-1.654869044321522	1.741169276313448	41.81266400244411	-4.445726170514284	9.952247732541244	45.88934061350681	106.8674789020812	0	0	40.21355158679435	-2.027691083555045	11.8443172751587	37.84832936477449	96.33832823537384	0	0
0.06	-16.26742024561629	-5.735229832329876	25.49336147278966	0	0.9399999999999999	0	34.19433096178702	-13.65139732938781	-10.33239060828177	50.09530435205582	0.8743280007320187	0	0	0	34.19433096178702	-13.65139732938781	-10.33239060828177	50.09530435205582	0.8743280007320187	0	0	0	-15.50684111378104	-1.650661716819834	1.740379954787719	41.78357988670222	-4.462835754802971	9.987368085898497	45.93610468770498	106.8534283651127	0	0	40.20852597483221	-2.025987782187056	11.85800360114651	37.85323950518376	96.35687781814838	0	0
0.08	-16.27319879378855	-5.73542687168465	25.49516593594546	0	0.9399999999999999	0	34.20483575220346	-13.6455715407849	-10.33188364667289	50.09883358884436	0.8743895975340612	0	0	0	34.20483575220346	-13.6455715407849	-10.33188364667289	50.09883358884436	0.8743895975340612	0	0	0	-15.51364775263597	-1.644870911815472	1.737512486141747	41.79621354655883	-4.48251542178354	9.992504983743851	45.96815844757132	106.9034289007541	0	0	40.22781589311656	-2.027434367766228	11.85641080247811	37.81922077310355	96.37887984412058	0	0
0.1	-16.2644264672286	-5.736120520746659	25.51187440124139	0	0.9399999999999999	0	34.25906872153872	-13.59055896234945	-10.328453981139	50.11540790501076	0.8746788739224314	0	0	0	34.25906872153872	-13.59055896234945	-10.328453981139	50.11540790501076	0.8746788739224314	0	0	0	-15.51197220790356	-1.636301469176987	1.733543215715537	41.75263759118162	-4.499263280964782	10.00724932595366	46.07470399508301	106.9349429000273	0	0	40.2142768166724	-2.033469165816922	11.85299306851851	37.84416583785598	96.39203989100443	0	0
0.12	-16.26265050717245	-5.737699895255339	25.52630861193912	0	0.9399999999999999	0	34.29511872119416	-13.57208536244013	-10.32672027674831	50.12732237172096	0.8748868205951437	0	0	0	34.29511872119416	-13.57208536244013	-10.32672027674831	50.12732237172096	0.8748868205951437	0	0	0	-15.51598807675424	-1.62697146549883	1.723318190225238	41.76177371873467	-4.494231049533449	10.00771581171826	46.13423483341814	107.0502990282137	0	0	40.21657169079556	-2.013283842121925	11.85513448525715	37.7773905957206	96.40338560897142	0	0
0.14	-16.27148242206283	-5.754790019295634	25.57458931006402	0	0.9399999999999999	0	34.33837990688242	-13.52869076459839	-10.32400154061772	50.14058286710632	0.8751182599000636	0	0	0	34.33837990688242	-13.52869076459839	-10.32400154061772	50.14058286710632	0.8751182599000636	0	0	0	-15.53576560025729	-1.62847806079768	1.720115589130809	41.72444289229717	-4.575904061921098	9.941712893876243	46.32972141902794	107.220254298673	0	0	40.26443136413874	-2.026483874924891	11.82290148721345	37.77356303323511	96.4518816669007	0	0
0.16	-16.27214903599387	-5.766985212864034	25.59316956752812	0	0.9399999999999999	0	34.37785998894149	-13.4926678662856	-10.32162915297852	50.15284598426588	0.8753322916710559	0	0	0	34.37785998894149	-13.4926678662856	-10.32162915297852	50.15284598426588	0.8753322916710559	0	0	0	-15.5460301141691	-1.628361183049267	1.712744953366485	41.72269892234802	-4.609860299441579	9.918526582481956	46.48209770999253	107.3500147717884	0	0	40.2766577884589	-2.028145515874181	11.81296345212504	37.72199704756758	96.4924559340335	0	0
0.18	-16.2642770338134	-5.773923676581023	25.62227847782623	0	0.9399999999999999	0	34.426350143044	-13.44289803527067	-10.31855474499488	50.16766919648637	0.8755910055300252	0	0	0	34.426350143044	-13.44289803527067	-10.31855474499488	50.16766919648637	0.8755910055300252	0	0	0	-15.54678414395778	-1.627462646994295	1.711859677386789	41.64730031106431	-4.645194199510601	9.904640813543482	46.66599668890562	107.3589966420808	0	0	40.24322882893855	-2.021611478423854	11.79916302879786	37.76686589345459	96.5158189170777	0	0
0.2	-16.24822617540292	-5.789639214909846	25.65986182799067	0	0.9399999999999999	0	34.49223231896919	-13.37635100018125	-10.31440754737173	50.18784964303168	0.8759432207667637	0	0	0	34.49223231896919	-13.37635100018125	-10.31440754737173	50.18784964303168	0.8759432207667637	0	0	0	-15.54619224813615	-1.63194708239147	1.702090379159633	41.56996653681591	-4.642585927702954	9.947187114823924	46.92465376799127	107.3561555350218	0	0	40.20995147405495	-2.034580485994971	11.81724763543382	37.82921733691749	96.49280614628107	0	0
0.22	-16.23828816301533	-5.813906144221407	25.70420204340115	0	0.9399999999999999	0	34.57654903678904	-13.29082468954807	-10.30908989256789	50.21367202507832	0.8763939063541853	0	0	0	34.57654903678904	-13.29082468954807	-10.30908989256789	50.21367202507832	0.8763939063541853	0	0	0	-15.55856657528511	-1.63072050063417	1.671456054964054	41.46615190721623	-4.66009324528778	9.983377493113936	47.37694279111374	107.3344771249915	0	0	40.20621537182541	-2.05507039750416	11.80423530289518	37.8783321443352	96.45626121044795	0	0
0.24	-16.23656687599151	-5.812075101093029	25.76053103943724	0	0.9399999999999999	0	34.57962842776126	-13.28750801291416	-10.30889061018895	50.21461562859471	0.8764103753423798	0	0	0	34.57962842776126	-13.28750801291416	-10.30889061018895	50.21461562859471	0.8764103753423798	0	0	0	-15.55745124852233	-1.624980949013981	1.658647888496353	41.27636032009658	-4.822247577451447	10.04140947186412	47.9036112765276	107.2467850882076	0	0	40.24028456842061	-1.991980864934963	11.77872429133859	37.76628898952216	96.50963261837551	0	0
0.26	-16.23966584589389	-5.836484426560563	25.8198594161578	0	0.9399999999999999	0	34.58237999543832	-13.28454727268438	-10.30871263330815	50.21545911384771	0.8764250969372366	0	0	0	34.58237999543832	-13.28454727268438	-10.30871263330815	50.21545911384771	0.8764250969372366	0	0	0	-15.57395489061067	-1.635422949555036	1.624743102963988	41.30084526509297	-4.772440954337749	10.0221255110514	48.53806982128481	107.2669816214865	0	-1.077613842297402e-35	40.30276768744366	-1.983418451895322	11.73706328313885	37.75258113831079	96.55801391597858	0	-1.077613842297402e-35
0.28	-16.2295901336361	-5.835034130528779	25.88224287044067	0	0.9399999999999999	0	34.58548489845182	-13.28118465651184	-10.30851094933475	50.21640456401953	0.8764415981556484	0	0	0	34.58548489845182	-13.28118465651184	-10.30851094933475	50.21640456401953	0.8764415981556484	0	0	0	-15.56375103881159	-1.638680364600862	1.626479850822282	41.0305895089395	-4.972567049053157	10.09638996072221	48.83073541630796	107.104893974152	0	0	40.30115779206832	-1.91069122420289	11.69637440700856	37.69370168637672	96.64816338142879	0	0
0.3	-16.22251140787071	-5.866287340506581	26.09256026164579	0	0.9399999999999999	0	34.59150238770383	-13.27468075975649	-10.30812049368129	50.21823857797219	0.8764736077376499	0	0	0	34.59150238770383	-13.27468075975649	-10.30812049368129	50.21823857797219	0.8764736077376499	0	0	0	-15.58396364071569	-1.629215421860216	1.492676153699097	40.98730509551091	-4.833889294090892	10.1388989260603	51.19440295037943	107.0064260076732	0	0	40.35249759490002	-1.898967665758346	11.67771293413893	37.67792367861623	96.70697800349886	0	0
0.32	-16.21139339991365	-5.882146555388084	26.09519878340092	0	0.9399999999999999	0	34.60033703827508	-13.26551822028633	-10.30756156508041	50.22102368365437	0.87652221700182	0	0	0	34.60033703827508	-13.26551822028633	-10.30756156508041	50.22102368365437	0.87652221700182	0	0	0	-15.57576005833725	-1.648925400151029	1.49353131074627	40.37573586918424	-5.324619746899787	10.17688790167849	53.8599548363869	106.0034251756347	0	0	40.35067411312937	-1.924183903157749	11.58803076615489	37.66810863903564	96.80135256576544	0	0
0.34	-16.26136543579532	-5.945604394922307	25.9403034069597	0	0.9399999999999999	0	34.62004137110226	-13.2450650545424	-10.30631205193418	50.22717350673672	0.876629551663022	0	0	0	34.62004137110226	-13.2450650545424	-10.30631205193418	50.22717350673672	0.876629551663022	0	0	0	-15.63655312744789	-1.728849124892806	1.635855063483024	40.25863196468126	-5.595665412449788	10.14428689039591	56.61345279059646	104.5936755312678	0	0	40.48433754718796	-1.969499008522079	11.63815147820142	37.69061311778896	96.68103963604027	0	0
0.36	-16.30881469809182	-5.993229796416682	25.62222952162436	0	0.9399999999999999	0	34.62578608511307	-13.23891911253303	-10.30594127502804	50.22893104844092	0.8766602265525014	0	0	0	34.62578608511307	-13.23891911253303	-10.30594127502804	50.22893104844092	0.8766602265525014	0	0	0	-15.67931196665776	-1.836835949395335	1.866131120934341	41.02952849489614	-6.2842950871271	9.704691360180952	61.24504959613458	101.3237980908001	0	0	40.58132786141412	-2.045435238986959	11.5300402641759	37.70876948881569	96.71084121774803	0	0
0.3800000000000001	-16.34425900154418	-6.015455087812248	25.44595519884652	0	0.9399999999999999	0	34.6292925313934	-13.23515292881977	-10.30571434607763	50.22999876349388	0.8766788616956487	0	0	0	34.6292925313934	-13.23515292881977	-10.30571434607763	50.22999876349388	0.8766788616956487	0	0	0	-15.70748604543805	-1.887880338410641	2.000114347918192	42.38677314165025	-6.858331317077082	9.049218573740136	60.41177669166436	100.8900961442252	0	0	40.5766457656709	-2.091964238794954	11.47301246613858	37.81173343823527	96.74709230799147	0	0
0.4000000000000001	-16.35893675763093	-6.037570681010103	25.33294013796804	0	0.9399999999999999	0	34.6432711978495	-13.22022412425238	-10.30481212357038	50.23425801354588	0.8767531996327219	0	0	0	34.6432711978495	-13.22022412425238	-10.30481212357038	50.23425801354588	0.8767531996327219	0	0	0	-15.75058628779236	-1.87729047764083	1.897218900403425	44.498909890763	-7.207783528863343	9.292745233641066	67.32298045902324	93.10847961807879	0	0	40.3853404176955	-2.343315664508034	11.27835165562577	38.07391126194763	96.70137204494169	0	0
0.4200000000000001	-16.37574877889883	-6.037951828807988	25.07925490573402	0	0.9399999999999999	0	34.65066385984133	-13.21231257632597	-10.30433442711408	50.23650846169383	0.8767924773625489	0	0	0	34.65066385984133	-13.21231257632597	-10.30433442711408	50.23650846169383	0.8767924773625489	0	0	0	-15.774581168506	-1.87499975790016	1.888543226713979	47.14145863722113	-7.482973863485297	9.430936219326927	70.11850539753546	87.59052635454744	0	0	40.25576952753278	-2.52719366224169	11.17775949127879	38.25539404184154	96.63826253150096	0	0
0.4400000000000001	-16.34833908025029	-6.020108102279957	24.91171543430648	0	0.9399999999999999	0	34.81067724970979	-13.09828476050781	-10.2962390363379	50.30161167272091	0.8779287427485922	0	0	0	34.81067724970979	-13.09828476050781	-10.2962390363379	50.30161167272091	0.8779287427485922	0	0	0	-15.77990472777111	-1.814079656085968	1.789864229589619	50.24431291758922	-7.536364738441108	9.769846210905101	72.6640864615254	81.9631646256306	0	0	40.09823364129481	-2.69905058817895	11.16005657050784	38.41883396321987	96.50795570230437	0	0
